name C:\Users\u0101727\Documents\MyRepositories\upper-imu-dc\Results\main_tracking\Case_22\SHRUG01_orientations_groundFrame.mot
datacolumns 13
datarows 29
range 1.21000000 1.49000000
endheader 
time	radius_imu_[0][0]	radius_imu_[0][1]	radius_imu_[0][2]	radius_imu_[1][0]	radius_imu_[1][1]	radius_imu_[1][2]	radius_imu_[2][0]	radius_imu_[2][1]	radius_imu_[2][2]	radius_imu_x	radius_imu_y	radius_imu_z	
          1.21000000	          0.47223633	         -0.16345950	          0.86618349	         -0.27589708	          0.90587229	          0.32136615	         -0.83718197	         -0.39073827	          0.38268780	         -0.69851947	          1.04751382	          0.33323122	
          1.22000000	          0.47321922	         -0.16712484	          0.86494674	         -0.27646497	          0.90406349	          0.32593915	         -0.83643929	         -0.39336815	          0.38161605	         -0.70687085	          1.04504423	          0.33949234	
          1.23000000	          0.47346569	         -0.17082449	          0.86408867	         -0.27747703	          0.90213716	          0.33038620	         -0.83596455	         -0.39619129	          0.37973112	         -0.71602128	          1.04333699	          0.34626000	
          1.24000000	          0.47262921	         -0.17459119	          0.86379370	         -0.27902002	          0.90010664	          0.33459806	         -0.83592432	         -0.39915655	          0.37670225	         -0.72627389	          1.04275124	          0.35385571	
          1.25000000	          0.47052384	         -0.17844785	          0.86415489	         -0.28112392	          0.89798914	          0.33850383	         -0.83640699	         -0.40220873	          0.37235934	         -0.73780821	          1.04346857	          0.36249462	
          1.26000000	          0.46711556	         -0.18239803	          0.86517860	         -0.28376607	          0.89580701	          0.34206230	         -0.83742455	         -0.40529095	          0.36668702	         -0.75066822	          1.04550642	          0.37227031	
          1.27000000	          0.46250835	         -0.18642158	          0.86679468	         -0.28687627	          0.89358812	          0.34525683	         -0.83892075	         -0.40834699	          0.35981204	         -0.76475742	          1.04873816	          0.38314704	
          1.28000000	          0.45692779	         -0.19047447	          0.86887080	         -0.29034232	          0.89136558	          0.34809301	         -0.84078436	         -0.41132333	          0.35198690	         -0.77983616	          1.05291671	          0.39495500	
          1.29000000	          0.45070071	         -0.19449153	          0.87123012	         -0.29401686	          0.88917691	          0.35059736	         -0.84286592	         -0.41417082	          0.34356887	         -0.79552290	          1.05770275	          0.40738980	
          1.30000000	          0.44422561	         -0.19839211	          0.87367281	         -0.29772753	          0.88706270	          0.35281451	         -0.84499818	         -0.41684569	          0.33498918	         -0.81130866	          1.06270113	          0.42002468	
          1.31000000	          0.43792751	         -0.20208889	          0.87600204	         -0.30129279	          0.88506449	          0.35480066	         -0.84701957	         -0.41931007	          0.32670616	         -0.82659893	          1.06750951	          0.43234848	
          1.32000000	          0.43219666	         -0.20549995	          0.87805228	         -0.30454349	          0.88322170	          0.35661281	         -0.84879874	         -0.42153197	          0.31914180	         -0.84079205	          1.07177697	          0.44383816	
          1.33000000	          0.42731941	         -0.20856355	          0.87971550	         -0.30734678	          0.88156804	          0.35829561	         -0.85025648	         -0.42348439	          0.31260980	         -0.85338897	          1.07526356	          0.45406149	
          1.34000000	          0.42341474	         -0.21125365	          0.88096075	         -0.30962709	          0.88012784	          0.35986949	         -0.85138183	         -0.42514336	          0.30724925	         -0.86411206	          1.07788876	          0.46278998	
          1.35000000	          0.42039174	         -0.21359318	          0.88184394	         -0.31137907	          0.87891314	          0.36132362	         -0.85224049	         -0.42648522	          0.30297938	         -0.87300112	          1.07975847	          0.47009172	
          1.36000000	          0.41794128	         -0.21566079	          0.88250525	         -0.31266884	          0.87792239	          0.36261614	         -0.85297320	         -0.42748415	          0.29948960	         -0.88045293	          1.08116275	          0.47637136	
          1.37000000	          0.41557640	         -0.21758306	          0.88314997	         -0.31362310	          0.87714096	          0.36368158	         -0.85377796	         -0.42811371	          0.29628001	         -0.88717482	          1.08253538	          0.48232481	
          1.38000000	          0.41273882	         -0.21950011	          0.88400586	         -0.31440832	          0.87654353	          0.36444320	         -0.85486494	         -0.42835865	          0.29277089	         -0.89402364	          1.08436311	          0.48877338	
          1.39000000	          0.40896810	         -0.22150271	          0.88525795	         -0.31520365	          0.87609798	          0.36482735	         -0.85638295	         -0.42823928	          0.28847766	         -0.90173726	          1.08704834	          0.49638177	
          1.40000000	          0.40405021	         -0.22358059	          0.88699219	         -0.31617209	          0.87576983	          0.36477721	         -0.85835810	         -0.42783049	          0.28316505	         -0.91069426	          1.09079041	          0.50541041	
          1.41000000	          0.39802199	         -0.22564145	          0.88919313	         -0.31743496	          0.87552652	          0.36426414	         -0.86070526	         -0.42724612	          0.27685232	         -0.92090573	          1.09557862	          0.51573091	
          1.42000000	          0.39105910	         -0.22758250	          0.89178416	         -0.31905405	          0.87534045	          0.36329549	         -0.86329444	         -0.42659736	          0.26969873	         -0.93219800	          1.10127320	          0.52705251	
          1.43000000	          0.38339481	         -0.22933653	          0.89465813	         -0.32102503	          0.87519061	          0.36191758	         -0.86599731	         -0.42596498	          0.26192077	         -0.94433892	          1.10766539	          0.53907524	
          1.44000000	          0.37530621	         -0.23087248	          0.89768767	         -0.32328325	          0.87506287	          0.36021231	         -0.86869626	         -0.42539730	          0.25377932	         -0.95703852	          1.11449337	          0.55149033	
          1.45000000	          0.36711014	         -0.23218002	          0.90073447	         -0.32572113	          0.87494932	          0.35828681	         -0.87128405	         -0.42491897	          0.24557682	         -0.96992300	          1.12145745	          0.56394106	
          1.46000000	          0.35913618	         -0.23325726	          0.90366601	         -0.32821287	          0.87484692	          0.35625718	         -0.87366900	         -0.42453966	          0.23763114	         -0.98254822	          1.12825434	          0.57602034	
          1.47000000	          0.35166900	         -0.23411104	          0.90637792	         -0.33064001	          0.87475627	          0.35422966	         -0.87578884	         -0.42425639	          0.23021819	         -0.99448280	          1.13462999	          0.58734289	
          1.48000000	          0.34497326	         -0.23472513	          0.90878906	         -0.33291048	          0.87467967	          0.35228694	         -0.87758992	         -0.42407498	          0.22359864	         -1.00524783	          1.14037268	          0.59746069	
          1.49000000	          0.33962469	         -0.23492435	          0.91075003	         -0.33495294	          0.87461404	          0.35050937	         -0.87889795	         -0.42410003	          0.21835192	         -1.01366820	          1.14509668	          0.60514560	
